<?xml version="1.0" encoding="UTF-8" standalone="no"?>
<!-- Created with Inkscape (http://www.inkscape.org/) -->

<svg
   width="1.5482283mm"
   height="1.5451276mm"
   viewBox="0 0 1.5482283 1.5451276"
   version="1.1"
   id="svg6380"
   inkscape:version="1.2 (dc2aedaf03, 2022-05-15)"
   sodipodi:docname="Pencil.svg"
   xmlns:inkscape="http://www.inkscape.org/namespaces/inkscape"
   xmlns:sodipodi="http://sodipodi.sourceforge.net/DTD/sodipodi-0.dtd"
   xmlns="http://www.w3.org/2000/svg"
   xmlns:svg="http://www.w3.org/2000/svg">
  <sodipodi:namedview
     id="namedview6382"
     pagecolor="#ffffff"
     bordercolor="#666666"
     borderopacity="1.0"
     inkscape:showpageshadow="2"
     inkscape:pageopacity="0.0"
     inkscape:pagecheckerboard="0"
     inkscape:deskcolor="#d1d1d1"
     inkscape:document-units="mm"
     showgrid="false"
     inkscape:zoom="57.247873"
     inkscape:cx="6.0788285"
     inkscape:cy="4.0001486"
     inkscape:window-width="1600"
     inkscape:window-height="837"
     inkscape:window-x="-8"
     inkscape:window-y="-8"
     inkscape:window-maximized="1"
     inkscape:current-layer="layer1" />
  <defs
     id="defs6377" />
  <g
     inkscape:label="Ebene 1"
     inkscape:groupmode="layer"
     id="layer1"
     transform="translate(-35.631094,-53.948458)">
    <g
       aria-label="✎"
       transform="scale(-1,1)"
       id="text7016"
       style="font-size:2.11667px;line-height:1.25;font-family:'Microsoft JhengHei UI';-inkscape-font-specification:'Microsoft JhengHei UI';word-spacing:0px;stroke-width:0.264583">
      <path
         d="m -36.919906,54.566509 q -0.0155,-0.0155 -0.0155,-0.03721 0,-0.02274 0.01757,-0.04031 l 0.27802,-0.276986 q 0.01964,-0.01964 0.04341,-0.01964 0.0217,0 0.03721,0.0155 l 0.795818,0.795818 q 0.0155,0.0155 0.0155,0.03617 0,0.0248 -0.01964,0.04444 l -0.280087,0.280086 q -0.01757,0.0155 -0.04031,0.0155 -0.02067,0 -0.03514,-0.01447 z m 0.196371,-0.438217 -0.275953,0.275953 q -0.02067,0.02067 -0.04548,0.02067 -0.02067,0 -0.03514,-0.01447 -0.0041,-0.0041 -0.0124,-0.01344 -0.0083,-0.01034 -0.0186,-0.0217 -0.0093,-0.01137 -0.01964,-0.02377 -0.01034,-0.0124 -0.01757,-0.02067 -0.0155,-0.01757 -0.02377,-0.04444 -0.0072,-0.02687 -0.0072,-0.05788 0,-0.04961 0.01964,-0.103353 0.02067,-0.05374 0.06305,-0.09612 0.04341,-0.04341 0.09405,-0.06201 0.05064,-0.0186 0.09715,-0.0186 0.03307,0 0.06098,0.0083 0.02894,0.0072 0.04858,0.0217 l 0.07958,0.06925 q 0.0124,0.0155 0.0124,0.03514 0,0.02584 -0.01964,0.04548 z m 1.049033,1.36426 -0.174667,-0.03307 q -0.0052,-0.0021 -0.01033,-0.0041 -0.0052,-0.001 -0.0093,-0.0041 -0.0072,-0.0072 -0.0072,-0.01654 0,-0.01447 0.0155,-0.02997 l 0.141594,-0.141594 q 0.0072,-0.0062 0.01447,-0.01034 0.0072,-0.0041 0.01447,-0.0041 0.0062,0 0.01447,0.0062 0.0072,0.0093 0.01034,0.02067 l 0.03307,0.174666 0.001,0.0093 q 0,0.01447 -0.0083,0.02481 -0.01137,0.0093 -0.02687,0.0093 -0.0052,0 -0.0083,-0.001 z"
         id="path7018" />
    </g>
  </g>
</svg>
